<svg width="19" height="19" viewBox="0 0 19 19" fill="none" xmlns="http://www.w3.org/2000/svg">
<path d="M2.20833 0.125C1.05937 0.125 0.125 1.05937 0.125 2.20833V16.7917C0.125 17.9406 1.05937 18.875 2.20833 18.875H9.10531H12.0146H16.7917C17.9406 18.875 18.875 17.9406 18.875 16.7917V2.20833C18.875 1.05937 17.9406 0.125 16.7917 0.125H2.20833ZM2.20833 2.20833H16.7917L16.7937 16.7917H12.0146V12.6616H14.4784L14.8446 9.82349H12.0309V8.01481C12.0309 7.19398 12.2597 6.63949 13.4368 6.63949H14.924V4.10653C14.2 4.03257 13.4732 3.99661 12.745 3.9987C10.5846 3.9987 9.10531 5.31729 9.10531 7.73812V9.82755H6.6639V12.6657H9.10531V16.7917H2.20833V2.20833Z" fill="black"/>
</svg>
