<svg width="19" height="19" viewBox="0 0 19 19" fill="none" xmlns="http://www.w3.org/2000/svg">
<path d="M5.33333 0.125C2.46146 0.125 0.125 2.46146 0.125 5.33333V13.6667C0.125 16.5385 2.46146 18.875 5.33333 18.875H13.6667C16.5385 18.875 18.875 16.5385 18.875 13.6667V5.33333C18.875 2.46146 16.5385 0.125 13.6667 0.125H5.33333ZM5.33333 2.20833H13.6667C15.3896 2.20833 16.7917 3.61042 16.7917 5.33333V13.6667C16.7917 15.3896 15.3896 16.7917 13.6667 16.7917H5.33333C3.61042 16.7917 2.20833 15.3896 2.20833 13.6667V5.33333C2.20833 3.61042 3.61042 2.20833 5.33333 2.20833ZM14.7083 3.25C14.4321 3.25 14.1671 3.35975 13.9718 3.5551C13.7764 3.75045 13.6667 4.0154 13.6667 4.29167C13.6667 4.56793 13.7764 4.83289 13.9718 5.02824C14.1671 5.22359 14.4321 5.33333 14.7083 5.33333C14.9846 5.33333 15.2496 5.22359 15.4449 5.02824C15.6403 4.83289 15.75 4.56793 15.75 4.29167C15.75 4.0154 15.6403 3.75045 15.4449 3.5551C15.2496 3.35975 14.9846 3.25 14.7083 3.25ZM9.5 4.29167C6.62812 4.29167 4.29167 6.62812 4.29167 9.5C4.29167 12.3719 6.62812 14.7083 9.5 14.7083C12.3719 14.7083 14.7083 12.3719 14.7083 9.5C14.7083 6.62812 12.3719 4.29167 9.5 4.29167ZM9.5 6.375C11.2229 6.375 12.625 7.77708 12.625 9.5C12.625 11.2229 11.2229 12.625 9.5 12.625C7.77708 12.625 6.375 11.2229 6.375 9.5C6.375 7.77708 7.77708 6.375 9.5 6.375Z" fill="black"/>
</svg>
