<svg width="10" height="10" viewBox="0 0 10 10" fill="none" xmlns="http://www.w3.org/2000/svg">
<path d="M5.15045 0.845929C5.11966 0.88648 4.82232 1.48259 4.70241 1.74374C4.07452 3.11276 3.95299 3.36986 3.90276 3.42744C3.86954 3.46637 3.842 3.47853 3.72776 3.50773C3.55762 3.55071 3.47093 3.56694 2.43957 3.75104C1.22753 3.96677 0.935054 4.02436 0.905077 4.05436C0.881582 4.0787 0.893735 4.09654 0.998249 4.19386C1.25022 4.42663 1.35635 4.51665 2.1479 5.15818C2.78633 5.67561 2.93702 5.80132 3.05207 5.91649C3.16873 6.03166 3.17116 6.03896 3.15982 6.16629C3.14605 6.32038 3.10311 6.54747 2.92568 7.41284C2.82846 7.8881 2.7361 8.34228 2.71989 8.42257C2.67047 8.6748 2.617 9.01706 2.61943 9.06166C2.62348 9.13141 2.63482 9.12898 2.90299 8.99192C3.15658 8.86215 3.23517 8.81917 4.08424 8.3439C4.81179 7.93677 4.9317 7.87107 5.08482 7.79727C5.22579 7.72914 5.28251 7.71049 5.32383 7.71779C5.40485 7.7332 5.64952 7.85404 6.46052 8.27821C6.76434 8.43717 7.11191 8.61641 7.23181 8.67724C7.48297 8.80376 7.85971 8.97732 7.89778 8.98381C7.91804 8.98705 7.92452 8.98462 7.93262 8.97002C7.94478 8.9465 7.94153 8.91 7.89616 8.64155C7.85647 8.40554 7.84431 8.34147 7.64096 7.27497C7.43517 6.19873 7.3979 5.98543 7.3979 5.87837C7.3979 5.78591 7.40681 5.7778 8.36202 4.97975C8.6626 4.72833 8.94535 4.49151 8.98991 4.45339C9.2273 4.25063 9.57406 3.93839 9.58054 3.92055C9.58864 3.89865 9.58621 3.88567 9.57001 3.87756C9.5295 3.85566 9.01665 3.79159 8.16353 3.70238C6.95554 3.57586 6.72302 3.54909 6.63876 3.52395C6.61526 3.51665 6.5861 3.50043 6.57232 3.48664C6.52209 3.43636 6.42001 3.23928 5.96873 2.31795C5.50045 1.36174 5.25415 0.874315 5.21769 0.829708C5.20149 0.810244 5.17151 0.817543 5.15045 0.845929Z" fill="#E6AE3F"/>
</svg>
