<svg width="10" height="10" viewBox="0 0 10 10" fill="none" xmlns="http://www.w3.org/2000/svg">
<path d="M4.78009 0.845929C4.7493 0.88648 4.45196 1.48259 4.33205 1.74374C3.70416 3.11276 3.58263 3.36986 3.5324 3.42744C3.49918 3.46637 3.47164 3.47853 3.3574 3.50773C3.18726 3.55071 3.10057 3.56694 2.06921 3.75104C0.85717 3.96677 0.564693 4.02436 0.534716 4.05436C0.511221 4.0787 0.523373 4.09654 0.627887 4.19386C0.879855 4.42663 0.985989 4.51665 1.77754 5.15818C2.41597 5.67561 2.56666 5.80132 2.68171 5.91649C2.79837 6.03166 2.8008 6.03896 2.78946 6.16629C2.77569 6.32038 2.73275 6.54747 2.55532 7.41284C2.4581 7.8881 2.36573 8.34228 2.34953 8.42257C2.30011 8.6748 2.24664 9.01706 2.24907 9.06166C2.25312 9.13141 2.26446 9.12898 2.53263 8.99192C2.78622 8.86215 2.86481 8.81917 3.71388 8.3439C4.44143 7.93677 4.56134 7.87107 4.71446 7.79727C4.85543 7.72914 4.91215 7.71049 4.95347 7.71779C5.03448 7.7332 5.27916 7.85404 6.09016 8.27821C6.39397 8.43717 6.74154 8.61641 6.86145 8.67724C7.11261 8.80376 7.48934 8.97732 7.52742 8.98381C7.54768 8.98705 7.55416 8.98462 7.56226 8.97002C7.57441 8.9465 7.57117 8.91 7.5258 8.64155C7.4861 8.40554 7.47395 8.34147 7.27059 7.27497C7.06481 6.19873 7.02754 5.98543 7.02754 5.87837C7.02754 5.78591 7.03645 5.7778 7.99166 4.97975C8.29224 4.72833 8.57499 4.49151 8.61955 4.45339C8.85694 4.25063 9.2037 3.93839 9.21018 3.92055C9.21828 3.89865 9.21585 3.88567 9.19965 3.87756C9.15914 3.85566 8.64629 3.79159 7.79316 3.70238C6.58518 3.57586 6.35266 3.54909 6.2684 3.52395C6.2449 3.51665 6.21573 3.50043 6.20196 3.48664C6.15173 3.43636 6.04965 3.23928 5.59837 2.31795C5.13009 1.36174 4.88379 0.874315 4.84733 0.829708C4.83113 0.810244 4.80115 0.817543 4.78009 0.845929Z" fill="#E6AE3F"/>
</svg>
