<svg width="19" height="19" viewBox="0 0 19 19" fill="none" xmlns="http://www.w3.org/2000/svg">
<path d="M2.20833 0.125C1.05729 0.125 0.125 1.05729 0.125 2.20833V16.7917C0.125 17.9427 1.05729 18.875 2.20833 18.875H16.7917C17.9427 18.875 18.875 17.9427 18.875 16.7917V2.20833C18.875 1.05729 17.9427 0.125 16.7917 0.125H2.20833ZM2.20833 2.20833H16.7917V16.7917H2.20833V2.20833ZM9.28231 6.22648C8.66772 6.22127 8.14684 6.22922 7.85205 6.37297C7.65622 6.4688 7.50503 6.68395 7.59774 6.69645C7.71128 6.71103 7.96782 6.7653 8.10636 6.9528C8.2824 7.19342 8.27726 7.73405 8.27726 7.73405C8.27726 7.73405 8.37777 9.221 8.03923 9.40641C7.80693 9.5335 7.48866 9.27546 6.80428 8.09212C6.45324 7.48483 6.18986 6.81445 6.18986 6.81445C6.18986 6.81445 6.13807 6.68784 6.04744 6.62117C5.93599 6.53993 5.78092 6.51335 5.78092 6.51335L4.14518 6.52148C4.14518 6.52148 3.89808 6.52202 3.80745 6.62931C3.72725 6.72515 3.80135 6.91414 3.80135 6.91414C3.80135 6.91414 5.08364 9.90296 6.53573 11.4165C7.86802 12.804 9.37793 12.6779 9.37793 12.6779H10.0636C10.0636 12.6779 10.2717 12.6897 10.3769 12.5762C10.4737 12.471 10.4705 12.3076 10.4705 12.3076C10.4705 12.3076 10.4574 11.3871 10.8835 11.2517C11.3043 11.1184 11.8436 12.1407 12.4154 12.5334C12.8467 12.8314 13.1764 12.7674 13.1764 12.7674L14.7063 12.7471C14.7063 12.7471 15.5055 12.6968 15.1295 12.0635C15.0982 12.0114 14.9089 11.5972 13.9922 10.7451C13.0318 9.85345 13.1605 9.99697 14.3157 8.45426C15.0198 7.51572 15.3014 6.94229 15.2129 6.69645C15.1285 6.46103 14.6107 6.52352 14.6107 6.52352L12.8895 6.53369C12.8895 6.53369 12.7605 6.51506 12.6657 6.57235C12.573 6.6286 12.5131 6.75749 12.5131 6.75749C12.5131 6.75749 12.2409 7.48558 11.8763 8.10433C11.1107 9.40954 10.804 9.47749 10.678 9.39624C10.3863 9.20874 10.4603 8.63975 10.4603 8.23454C10.4603 6.96995 10.6505 6.44229 10.0859 6.30583C9.89844 6.25999 9.76147 6.23169 9.28231 6.22648Z" fill="black"/>
</svg>
